<?xml version="1.0" encoding="UTF-8"?>
<svg version="1.1" xmlns="http://www.w3.org/2000/svg" width="316" height="166">
<path d="M0 0 C33.99 0 67.98 0 103 0 C103 1.98 103 3.96 103 6 C106.96 6.495 106.96 6.495 111 7 C112.55312917 48.65482433 113.19247827 90.31776171 113 132 C106.07 132 99.14 132 92 132 C92 134.64 92 137.28 92 140 C86.72 140 81.44 140 76 140 C75.67 141.65 75.34 143.3 75 145 C73.35 146.65 71.7 148.3 70 150 C99.205 150.495 99.205 150.495 129 151 C129 153.97 129 156.94 129 160 C126.36 160 123.72 160 121 160 C121 161.98 121 163.96 121 166 C118.03 166 115.06 166 112 166 C112 164.02 112 162.04 112 160 C109.69 160 107.38 160 105 160 C105 161.98 105 163.96 105 166 C102.03 166 99.06 166 96 166 C96 164.02 96 162.04 96 160 C93.69 160 91.38 160 89 160 C89 161.98 89 163.96 89 166 C86.03 166 83.06 166 80 166 C80 164.02 80 162.04 80 160 C77.69 160 75.38 160 73 160 C73 161.98 73 163.96 73 166 C70.03 166 67.06 166 64 166 C64 164.02 64 162.04 64 160 C61.69 160 59.38 160 57 160 C57 161.98 57 163.96 57 166 C54.03 166 51.06 166 48 166 C48 164.02 48 162.04 48 160 C45.69 160 43.38 160 41 160 C41 161.98 41 163.96 41 166 C38.03 166 35.06 166 32 166 C32 164.02 32 162.04 32 160 C29.69 160 27.38 160 25 160 C25 161.98 25 163.96 25 166 C22.03 166 19.06 166 16 166 C16 164.02 16 162.04 16 160 C13.69 160 11.38 160 9 160 C9 161.98 9 163.96 9 166 C6.03 166 3.06 166 0 166 C0 164.02 0 162.04 0 160 C-2.31 160 -4.62 160 -7 160 C-7 161.98 -7 163.96 -7 166 C-9.97 166 -12.94 166 -16 166 C-16 164.02 -16 162.04 -16 160 C-18.31 160 -20.62 160 -23 160 C-23 161.98 -23 163.96 -23 166 C-25.97 166 -28.94 166 -32 166 C-32 164.02 -32 162.04 -32 160 C-34.31 160 -36.62 160 -39 160 C-39 161.98 -39 163.96 -39 166 C-41.97 166 -44.94 166 -48 166 C-48 164.02 -48 162.04 -48 160 C-50.31 160 -52.62 160 -55 160 C-55 161.98 -55 163.96 -55 166 C-57.97 166 -60.94 166 -64 166 C-64 164.02 -64 162.04 -64 160 C-66.31 160 -68.62 160 -71 160 C-71 161.98 -71 163.96 -71 166 C-73.97 166 -76.94 166 -80 166 C-80 164.02 -80 162.04 -80 160 C-82.31 160 -84.62 160 -87 160 C-87 161.98 -87 163.96 -87 166 C-89.97 166 -92.94 166 -96 166 C-96 164.02 -96 162.04 -96 160 C-98.31 160 -100.62 160 -103 160 C-103 161.98 -103 163.96 -103 166 C-105.97 166 -108.94 166 -112 166 C-112 164.02 -112 162.04 -112 160 C-114.31 160 -116.62 160 -119 160 C-119 161.98 -119 163.96 -119 166 C-121.97 166 -124.94 166 -128 166 C-128 164.02 -128 162.04 -128 160 C-130.31 160 -132.62 160 -135 160 C-135 161.98 -135 163.96 -135 166 C-137.97 166 -140.94 166 -144 166 C-144 164.02 -144 162.04 -144 160 C-146.31 160 -148.62 160 -151 160 C-151 161.98 -151 163.96 -151 166 C-153.97 166 -156.94 166 -160 166 C-160 164.02 -160 162.04 -160 160 C-161.32 160 -162.64 160 -164 160 C-164 157.03 -164 154.06 -164 151 C-162.35 151 -160.7 151 -159 151 C-158.979375 149.72125 -158.95875 148.4425 -158.9375 147.125 C-158.92589844 146.40570313 -158.91429687 145.68640625 -158.90234375 144.9453125 C-158.87350758 142.91814596 -158.87350758 142.91814596 -160 141 C-162.15242651 140.51511271 -164.32365295 140.11272451 -166.5 139.75 C-174.65389777 138.09763172 -179.7944275 135.28375719 -185.5625 129.375 C-188.6319139 122.16854999 -187.75455168 115.11072101 -184.9375 107.9375 C-175.73520278 88.11120233 -159.67659774 71.04422663 -143.21875 56.9375 C-141.01617415 55.01412391 -138.8672073 53.03925312 -136.72387695 51.05029297 C-131.55402772 46.25423706 -126.25798984 41.7158209 -120.7578125 37.296875 C-117.85693307 34.88084511 -115.12169188 32.33952423 -112.375 29.75 C-107.5462973 25.23939896 -102.48011482 21.09934173 -97.25 17.0625 C-96.55310059 16.51883789 -95.85620117 15.97517578 -95.13818359 15.41503906 C-87.23232512 9.39991564 -80.43900418 5.86759586 -70.39550781 5.88647461 C-69.41439781 5.88625557 -69.41439781 5.88625557 -68.41346741 5.8860321 C-66.25998574 5.88672659 -64.10659148 5.89449717 -61.953125 5.90234375 C-60.45668586 5.90420958 -58.96024612 5.90563271 -57.46380615 5.90663147 C-53.53141585 5.91044365 -49.59906268 5.92026283 -45.66668701 5.93133545 C-41.65149437 5.94157751 -37.6362957 5.94613508 -33.62109375 5.95117188 C-25.74737883 5.96188628 -17.87369404 5.97894709 -10 6 C-10 9.96 -10 13.92 -10 18 C-6.7 18 -3.4 18 0 18 C0 12.06 0 6.12 0 0 Z M-21 132 C-23.8190918 132.31884766 -23.8190918 132.31884766 -27.19921875 132.4140625 C-29.01196289 132.47207031 -29.01196289 132.47207031 -30.86132812 132.53125 C-32.7552832 132.57765625 -32.7552832 132.57765625 -34.6875 132.625 C-36.59885742 132.68300781 -36.59885742 132.68300781 -38.54882812 132.7421875 C-41.69907292 132.83657686 -44.84930991 132.9221583 -48 133 C-48 135.31 -48 137.62 -48 140 C-53.28 140 -58.56 140 -64 140 C-64.5775 141.258125 -65.155 142.51625 -65.75 143.8125 C-67.47921887 147.57972682 -68.38863788 148.29147841 -72 151 C-37.35 151 -2.7 151 33 151 C31.35 149.68 29.7 148.36 28 147 C26.63971047 144.71582781 25.91999512 142.51788139 25 140 C23.02 140 21.04 140 19 140 C19 137.03 19 134.06 19 131 C13.78593793 130.8076609 8.57165475 130.6289508 3.35668945 130.46289062 C1.58247335 130.40446953 -0.19162396 130.34231701 -1.96557617 130.27636719 C-4.51459118 130.18224971 -7.06373134 130.10153321 -9.61328125 130.0234375 C-10.40712723 129.99124115 -11.20097321 129.9590448 -12.01887512 129.9258728 C-15.91864795 129.81964578 -17.67044223 129.78029482 -21 132 Z M-129.5625 130 C-132.93401792 130.62299488 -132.93401792 130.62299488 -134.1953125 132.49609375 C-135.28308158 134.6245238 -136.15309507 136.76460717 -137 139 C-137.37253906 139.88558594 -137.74507812 140.77117187 -138.12890625 141.68359375 C-140.20341923 146.19691151 -140.20341923 146.19691151 -141 151 C-129.78 151 -118.56 151 -107 151 C-108.65 149.68 -110.3 148.36 -112 147 C-113.36028953 144.71582781 -114.08000488 142.51788139 -115 140 C-116.98 140 -118.96 140 -121 140 C-121 136.7 -121 133.4 -121 130 C-123.85416667 130 -126.70833333 130 -129.5625 130 Z M-98 149 C-98.66 149.66 -99.32 150.32 -100 151 C-93.07 151 -86.14 151 -79 151 C-80.65 149.68 -82.3 148.36 -84 147 C-84.66 146.01 -85.32 145.02 -86 144 C-92.00132605 143.09413946 -94.19368619 144.43242343 -98 149 Z M42 149 C41.34 149.66 40.68 150.32 40 151 C46.93 151 53.86 151 61 151 C59.35 149.68 57.7 148.36 56 147 C55.34 146.01 54.68 145.02 54 144 C47.99867395 143.09413946 45.80631381 144.43242343 42 149 Z " fill="#4A4D4F" transform="translate(187,0)"/>
<path d="M0 0 C33.99 0 67.98 0 103 0 C103 1.98 103 3.96 103 6 C106.96 6.495 106.96 6.495 111 7 C111 15.25 111 23.5 111 32 C101.1 32.495 101.1 32.495 91 33 C91 33.66 91 34.32 91 35 C89.32464541 36.51984883 87.58294378 37.96706453 85.8125 39.375 C84.84957031 40.14585938 83.88664062 40.91671875 82.89453125 41.7109375 C81.46173828 42.84402344 81.46173828 42.84402344 80 44 C79.3002002 44.70334473 78.60040039 45.40668945 77.87939453 46.13134766 C73.84558906 48.74918275 70.72678461 48.39406566 66.03515625 48.1875 C64.24677586 48.16298249 62.45836032 48.14092896 60.66992188 48.12109375 C57.8773774 48.0698723 55.08931146 48.00109415 52.29858398 47.88720703 C41.91577698 47.50022412 34.03004757 47.48174398 26.0390625 54.73828125 C24.45496737 56.2781218 22.92885249 57.84775526 21.43214417 59.47250366 C19.19102796 61.8628334 16.75396773 64.00338658 14.3125 66.1875 C13.44238281 66.98671875 12.57226562 67.7859375 11.67578125 68.609375 C7.99192879 71.90064173 4.16766436 75.0023502 0.3125 78.08984375 C-1.97436279 79.84659254 -1.97436279 79.84659254 -3.39453125 81.7421875 C-5.98657248 83.77293513 -8.47880734 83.2828077 -11.6875 83.1875 C-13.45673828 83.14689453 -13.45673828 83.14689453 -15.26171875 83.10546875 C-16.16535156 83.07066406 -17.06898438 83.03585938 -18 83 C-18.421875 80.41796875 -18.421875 80.41796875 -18 77 C-16.0747521 74.41207619 -13.68898775 72.40814224 -11.25 70.3125 C-10.5705835 69.705271 -9.89116699 69.09804199 -9.19116211 68.47241211 C-7.80153249 67.2311311 -6.40624651 65.99615336 -5.00537109 64.76757812 C-2.65610793 62.69688598 -0.35523729 60.57861848 1.94091797 58.44946289 C6.1829984 54.51809928 10.48490103 50.66085314 14.85717773 46.87524414 C17.33979734 44.70263378 19.79184112 42.49799545 22.2421875 40.2890625 C23.13534668 39.4842041 24.02850586 38.6793457 24.94873047 37.85009766 C25.62564941 37.23956543 26.30256836 36.6290332 27 36 C26.44289841 35.99635437 25.88579681 35.99270874 25.31181335 35.98895264 C19.52035606 35.94718528 13.72969557 35.87788139 7.9387207 35.79248047 C5.77669234 35.76423139 3.61455995 35.74303654 1.45239258 35.72900391 C-1.65337541 35.70762904 -4.75788732 35.66100657 -7.86328125 35.609375 C-8.83211746 35.60814636 -9.80095367 35.60691772 -10.79914856 35.60565186 C-11.6998558 35.58593323 -12.60056305 35.5662146 -13.52856445 35.54589844 C-14.71770195 35.53257477 -14.71770195 35.53257477 -15.93086243 35.51898193 C-18.74239883 34.81379122 -19.34034351 33.29445209 -21 31 C-23.81879545 30.59447297 -26.24295574 30.43881189 -29.0625 30.46875 C-30.24404663 30.46300964 -30.24404663 30.46300964 -31.44946289 30.45715332 C-33.11378254 30.45443304 -34.77814486 30.46180254 -36.44238281 30.47851562 C-38.99120312 30.4999261 -41.53720495 30.47872061 -44.0859375 30.453125 C-45.70313123 30.45576826 -47.3203232 30.4608932 -48.9375 30.46875 C-49.70006104 30.46065308 -50.46262207 30.45255615 -51.24829102 30.44421387 C-53.65262507 30.44203476 -53.65262507 30.44203476 -57 31 C-58.01945982 32.31851411 -59.02056493 33.65148796 -60 35 C-63.16357422 35.35546875 -63.16357422 35.35546875 -67.0546875 35.1875 C-68.48249916 35.15278026 -69.91040858 35.12191113 -71.33837891 35.09448242 C-72.08065735 35.07646576 -72.82293579 35.0584491 -73.58770752 35.03988647 C-87.23320196 34.3552221 -87.23320196 34.3552221 -99.20214844 39.64331055 C-101.13696222 41.74312132 -102.90467849 43.91296885 -104.59375 46.21484375 C-107.23530912 49.5681563 -110.47288829 52.32466929 -113.625 55.1875 C-114.89589777 56.3762332 -116.1667327 57.56503358 -117.4375 58.75390625 C-121.23700998 62.25531638 -125.21741834 65.49809682 -129.25 68.7265625 C-139.59033929 77.274968 -150.7586321 86.67830676 -158 98 C-156.89785156 97.61328125 -155.79570312 97.2265625 -154.66015625 96.828125 C-140.79586928 92.03825188 -126.76346392 87.56621239 -112 87 C-110.96875 86.91363281 -109.9375 86.82726562 -108.875 86.73828125 C-96.02275355 86.09280012 -81.43647909 88.94647686 -69.59814453 94.03173828 C-66.35315618 95.34619717 -66.35315618 95.34619717 -60 96 C-60 106.56 -60 117.12 -60 128 C-65.39085938 127.93039063 -65.39085938 127.93039063 -70.890625 127.859375 C-74.44220575 127.82801756 -77.99377001 127.8038223 -81.54541016 127.78027344 C-83.97940175 127.76038317 -86.41334703 127.73326119 -88.84716797 127.69824219 C-96.91063689 127.58528053 -104.94239071 127.66429167 -113 128 C-114.00232666 128.03279053 -115.00465332 128.06558105 -116.03735352 128.09936523 C-116.98731201 128.14585205 -117.93727051 128.19233887 -118.91601562 128.24023438 C-119.73477173 128.27677124 -120.55352783 128.31330811 -121.39709473 128.35095215 C-125.39533855 129.02337546 -129.18752976 130.62044303 -133 132 C-135.64 138.27 -138.28 144.54 -141 151 C-51.9 151 37.2 151 129 151 C129 153.97 129 156.94 129 160 C126.36 160 123.72 160 121 160 C121 161.98 121 163.96 121 166 C118.03 166 115.06 166 112 166 C112 164.02 112 162.04 112 160 C109.69 160 107.38 160 105 160 C105 161.98 105 163.96 105 166 C102.03 166 99.06 166 96 166 C96 164.02 96 162.04 96 160 C93.69 160 91.38 160 89 160 C89 161.98 89 163.96 89 166 C86.03 166 83.06 166 80 166 C80 164.02 80 162.04 80 160 C77.69 160 75.38 160 73 160 C73 161.98 73 163.96 73 166 C70.03 166 67.06 166 64 166 C64 164.02 64 162.04 64 160 C61.69 160 59.38 160 57 160 C57 161.98 57 163.96 57 166 C54.03 166 51.06 166 48 166 C48 164.02 48 162.04 48 160 C45.69 160 43.38 160 41 160 C41 161.98 41 163.96 41 166 C38.03 166 35.06 166 32 166 C32 164.02 32 162.04 32 160 C29.69 160 27.38 160 25 160 C25 161.98 25 163.96 25 166 C22.03 166 19.06 166 16 166 C16 164.02 16 162.04 16 160 C13.69 160 11.38 160 9 160 C9 161.98 9 163.96 9 166 C6.03 166 3.06 166 0 166 C0 164.02 0 162.04 0 160 C-2.31 160 -4.62 160 -7 160 C-7 161.98 -7 163.96 -7 166 C-9.97 166 -12.94 166 -16 166 C-16 164.02 -16 162.04 -16 160 C-18.31 160 -20.62 160 -23 160 C-23 161.98 -23 163.96 -23 166 C-25.97 166 -28.94 166 -32 166 C-32 164.02 -32 162.04 -32 160 C-34.31 160 -36.62 160 -39 160 C-39 161.98 -39 163.96 -39 166 C-41.97 166 -44.94 166 -48 166 C-48 164.02 -48 162.04 -48 160 C-50.31 160 -52.62 160 -55 160 C-55 161.98 -55 163.96 -55 166 C-57.97 166 -60.94 166 -64 166 C-64 164.02 -64 162.04 -64 160 C-66.31 160 -68.62 160 -71 160 C-71 161.98 -71 163.96 -71 166 C-73.97 166 -76.94 166 -80 166 C-80 164.02 -80 162.04 -80 160 C-82.31 160 -84.62 160 -87 160 C-87 161.98 -87 163.96 -87 166 C-89.97 166 -92.94 166 -96 166 C-96 164.02 -96 162.04 -96 160 C-98.31 160 -100.62 160 -103 160 C-103 161.98 -103 163.96 -103 166 C-105.97 166 -108.94 166 -112 166 C-112 164.02 -112 162.04 -112 160 C-114.31 160 -116.62 160 -119 160 C-119 161.98 -119 163.96 -119 166 C-121.97 166 -124.94 166 -128 166 C-128 164.02 -128 162.04 -128 160 C-130.31 160 -132.62 160 -135 160 C-135 161.98 -135 163.96 -135 166 C-137.97 166 -140.94 166 -144 166 C-144 164.02 -144 162.04 -144 160 C-146.31 160 -148.62 160 -151 160 C-151 161.98 -151 163.96 -151 166 C-153.97 166 -156.94 166 -160 166 C-160 164.02 -160 162.04 -160 160 C-161.32 160 -162.64 160 -164 160 C-164 157.03 -164 154.06 -164 151 C-162.35 151 -160.7 151 -159 151 C-158.979375 149.72125 -158.95875 148.4425 -158.9375 147.125 C-158.92589844 146.40570313 -158.91429687 145.68640625 -158.90234375 144.9453125 C-158.87350758 142.91814596 -158.87350758 142.91814596 -160 141 C-162.15242651 140.51511271 -164.32365295 140.11272451 -166.5 139.75 C-174.65389777 138.09763172 -179.7944275 135.28375719 -185.5625 129.375 C-188.6319139 122.16854999 -187.75455168 115.11072101 -184.9375 107.9375 C-175.73520278 88.11120233 -159.67659774 71.04422663 -143.21875 56.9375 C-141.01617415 55.01412391 -138.8672073 53.03925312 -136.72387695 51.05029297 C-131.55402772 46.25423706 -126.25798984 41.7158209 -120.7578125 37.296875 C-117.85693307 34.88084511 -115.12169188 32.33952423 -112.375 29.75 C-107.5462973 25.23939896 -102.48011482 21.09934173 -97.25 17.0625 C-96.55310059 16.51883789 -95.85620117 15.97517578 -95.13818359 15.41503906 C-87.23232512 9.39991564 -80.43900418 5.86759586 -70.39550781 5.88647461 C-69.41439781 5.88625557 -69.41439781 5.88625557 -68.41346741 5.8860321 C-66.25998574 5.88672659 -64.10659148 5.89449717 -61.953125 5.90234375 C-60.45668586 5.90420958 -58.96024612 5.90563271 -57.46380615 5.90663147 C-53.53141585 5.91044365 -49.59906268 5.92026283 -45.66668701 5.93133545 C-41.65149437 5.94157751 -37.6362957 5.94613508 -33.62109375 5.95117188 C-25.74737883 5.96188628 -17.87369404 5.97894709 -10 6 C-10 9.96 -10 13.92 -10 18 C-6.7 18 -3.4 18 0 18 C0 12.06 0 6.12 0 0 Z " fill="#FD6427" transform="translate(187,0)"/>
<path d="M0 0 C1.60147339 0.04018266 3.20304386 0.07667505 4.8046875 0.109375 C8.70554525 0.19699534 12.60169248 0.33470973 16.5 0.5 C16.5 1.16 16.5 1.82 16.5 2.5 C15.56841064 2.46745117 14.63682129 2.43490234 13.67700195 2.40136719 C-5.57023375 0.86701033 -5.57023375 0.86701033 -22.70874023 7.15209961 C-24.64222223 9.24823273 -26.40682683 11.41589663 -28.09375 13.71484375 C-30.73530912 17.0681563 -33.97288829 19.82466929 -37.125 22.6875 C-38.39589777 23.8762332 -39.6667327 25.06503358 -40.9375 26.25390625 C-44.73700998 29.75531638 -48.71741834 32.99809682 -52.75 36.2265625 C-63.09033929 44.774968 -74.2586321 54.17830676 -81.5 65.5 C-80.39785156 65.11328125 -79.29570313 64.7265625 -78.16015625 64.328125 C-64.29586928 59.53825188 -50.26346392 55.06621239 -35.5 54.5 C-34.46875 54.41363281 -33.4375 54.32726562 -32.375 54.23828125 C-19.52275355 53.59280012 -4.93647909 56.44647686 6.90185547 61.53173828 C10.14684382 62.84619717 10.14684382 62.84619717 16.5 63.5 C16.5 74.06 16.5 84.62 16.5 95.5 C11.10914062 95.43039063 11.10914062 95.43039063 5.609375 95.359375 C2.05779425 95.32801756 -1.49377001 95.3038223 -5.04541016 95.28027344 C-7.47940175 95.26038317 -9.91334703 95.23326119 -12.34716797 95.19824219 C-20.41063689 95.08528053 -28.44239071 95.16429167 -36.5 95.5 C-37.50232666 95.53279053 -38.50465332 95.56558105 -39.53735352 95.59936523 C-40.48731201 95.64585205 -41.43727051 95.69233887 -42.41601562 95.74023438 C-43.23477173 95.77677124 -44.05352783 95.81330811 -44.89709473 95.85095215 C-48.89533855 96.52337546 -52.68752976 98.12044303 -56.5 99.5 C-59.14 105.77 -61.78 112.04 -64.5 118.5 C24.6 118.5 113.7 118.5 205.5 118.5 C205.5 121.47 205.5 124.44 205.5 127.5 C202.86 127.5 200.22 127.5 197.5 127.5 C197.5 129.48 197.5 131.46 197.5 133.5 C194.53 133.5 191.56 133.5 188.5 133.5 C188.5 131.52 188.5 129.54 188.5 127.5 C186.19 127.5 183.88 127.5 181.5 127.5 C181.5 129.48 181.5 131.46 181.5 133.5 C178.53 133.5 175.56 133.5 172.5 133.5 C172.5 131.52 172.5 129.54 172.5 127.5 C170.19 127.5 167.88 127.5 165.5 127.5 C165.5 129.48 165.5 131.46 165.5 133.5 C162.53 133.5 159.56 133.5 156.5 133.5 C156.5 131.52 156.5 129.54 156.5 127.5 C154.19 127.5 151.88 127.5 149.5 127.5 C149.5 129.48 149.5 131.46 149.5 133.5 C146.53 133.5 143.56 133.5 140.5 133.5 C140.5 131.52 140.5 129.54 140.5 127.5 C138.19 127.5 135.88 127.5 133.5 127.5 C133.5 129.48 133.5 131.46 133.5 133.5 C130.53 133.5 127.56 133.5 124.5 133.5 C124.5 131.52 124.5 129.54 124.5 127.5 C122.19 127.5 119.88 127.5 117.5 127.5 C117.5 129.48 117.5 131.46 117.5 133.5 C114.53 133.5 111.56 133.5 108.5 133.5 C108.5 131.52 108.5 129.54 108.5 127.5 C106.19 127.5 103.88 127.5 101.5 127.5 C101.5 129.48 101.5 131.46 101.5 133.5 C98.53 133.5 95.56 133.5 92.5 133.5 C92.5 131.52 92.5 129.54 92.5 127.5 C90.19 127.5 87.88 127.5 85.5 127.5 C85.5 129.48 85.5 131.46 85.5 133.5 C82.53 133.5 79.56 133.5 76.5 133.5 C76.5 131.52 76.5 129.54 76.5 127.5 C74.19 127.5 71.88 127.5 69.5 127.5 C69.5 129.48 69.5 131.46 69.5 133.5 C66.53 133.5 63.56 133.5 60.5 133.5 C60.5 131.52 60.5 129.54 60.5 127.5 C58.19 127.5 55.88 127.5 53.5 127.5 C53.5 129.48 53.5 131.46 53.5 133.5 C50.53 133.5 47.56 133.5 44.5 133.5 C44.5 131.52 44.5 129.54 44.5 127.5 C42.19 127.5 39.88 127.5 37.5 127.5 C37.5 129.48 37.5 131.46 37.5 133.5 C34.53 133.5 31.56 133.5 28.5 133.5 C28.5 131.52 28.5 129.54 28.5 127.5 C26.19 127.5 23.88 127.5 21.5 127.5 C21.5 129.48 21.5 131.46 21.5 133.5 C18.53 133.5 15.56 133.5 12.5 133.5 C12.5 131.52 12.5 129.54 12.5 127.5 C10.19 127.5 7.88 127.5 5.5 127.5 C5.5 129.48 5.5 131.46 5.5 133.5 C2.53 133.5 -0.44 133.5 -3.5 133.5 C-3.5 131.52 -3.5 129.54 -3.5 127.5 C-5.81 127.5 -8.12 127.5 -10.5 127.5 C-10.5 129.48 -10.5 131.46 -10.5 133.5 C-13.47 133.5 -16.44 133.5 -19.5 133.5 C-19.5 131.52 -19.5 129.54 -19.5 127.5 C-21.81 127.5 -24.12 127.5 -26.5 127.5 C-26.5 129.48 -26.5 131.46 -26.5 133.5 C-29.47 133.5 -32.44 133.5 -35.5 133.5 C-35.5 131.52 -35.5 129.54 -35.5 127.5 C-37.81 127.5 -40.12 127.5 -42.5 127.5 C-42.5 129.48 -42.5 131.46 -42.5 133.5 C-45.47 133.5 -48.44 133.5 -51.5 133.5 C-51.5 131.52 -51.5 129.54 -51.5 127.5 C-53.81 127.5 -56.12 127.5 -58.5 127.5 C-58.5 129.48 -58.5 131.46 -58.5 133.5 C-61.47 133.5 -64.44 133.5 -67.5 133.5 C-67.5 131.52 -67.5 129.54 -67.5 127.5 C-69.81 127.5 -72.12 127.5 -74.5 127.5 C-74.5 129.48 -74.5 131.46 -74.5 133.5 C-77.47 133.5 -80.44 133.5 -83.5 133.5 C-83.5 131.52 -83.5 129.54 -83.5 127.5 C-84.82 127.5 -86.14 127.5 -87.5 127.5 C-87.5 124.53 -87.5 121.56 -87.5 118.5 C-85.85 118.5 -84.2 118.5 -82.5 118.5 C-82.479375 117.22125 -82.45875 115.9425 -82.4375 114.625 C-82.42589844 113.90570313 -82.41429688 113.18640625 -82.40234375 112.4453125 C-82.37350758 110.41814596 -82.37350758 110.41814596 -83.5 108.5 C-85.65242651 108.01511271 -87.82365295 107.61272451 -90 107.25 C-98.15389777 105.59763172 -103.2944275 102.78375719 -109.0625 96.875 C-111.73792349 90.59357093 -111.48408556 84.50333379 -109.37109375 78.0546875 C-108.16652094 75.15135817 -106.89748241 72.31492886 -105.5 69.5 C-103.87191406 69.46132812 -103.87191406 69.46132812 -102.2109375 69.421875 C-100.76558651 69.36556262 -99.32027556 69.308216 -97.875 69.25 C-97.16214844 69.23582031 -96.44929688 69.22164063 -95.71484375 69.20703125 C-90.58817821 68.97186311 -87.57266165 67.85501202 -83.5 64.5 C-81.87591838 62.70066608 -81.87591838 62.70066608 -80.5625 60.6875 C-72.97937339 50.51501309 -63.30862743 41.69944324 -53.37890625 33.87109375 C-48.40098983 29.77123586 -43.77502411 25.29079745 -39.0859375 20.8671875 C-35.43513173 17.4242294 -31.70807225 14.07358846 -27.94140625 10.7578125 C-25.51906061 8.66927215 -25.51906061 8.66927215 -24.05224609 6.48144531 C-17.63112526 -1.64969678 -9.43080709 -0.41189351 0 0 Z " fill="#F3F2F2" transform="translate(110.5,32.5)"/>
<path d="M0 0 C0.80566406 0.00322266 1.61132812 0.00644531 2.44140625 0.00976562 C3.70404297 0.02233398 3.70404297 0.02233398 4.9921875 0.03515625 C5.84167969 0.03966797 6.69117188 0.04417969 7.56640625 0.04882812 C9.66669659 0.06062751 11.7669508 0.07856319 13.8671875 0.09765625 C14.96956701 5.51652124 15.08650829 10.82139074 15.18359375 16.328125 C15.20442017 17.33637329 15.22524658 18.34462158 15.2467041 19.38342285 C15.31281739 22.68392429 15.37168011 25.98450307 15.4296875 29.28515625 C15.45086639 30.40838287 15.47204529 31.5316095 15.49386597 32.68887329 C15.91541273 55.15972959 15.97096633 77.62377375 15.8671875 100.09765625 C8.9371875 100.09765625 2.0071875 100.09765625 -5.1328125 100.09765625 C-5.1328125 102.73765625 -5.1328125 105.37765625 -5.1328125 108.09765625 C-10.4128125 108.09765625 -15.6928125 108.09765625 -21.1328125 108.09765625 C-21.4628125 109.74765625 -21.7928125 111.39765625 -22.1328125 113.09765625 C-25.44499486 116.83447738 -27.36729552 118.927895 -32.3828125 119.41015625 C-36.76718063 119.04479224 -38.74843727 117.83738858 -42.1328125 115.09765625 C-42.4628125 114.43765625 -42.7928125 113.77765625 -43.1328125 113.09765625 C-46.42280532 112.67934221 -46.42280532 112.67934221 -50.1328125 113.09765625 C-52.96692405 115.43114825 -52.96692405 115.43114825 -55.1328125 118.09765625 C-58.24234629 119.65242315 -60.69548011 119.38410062 -64.1328125 119.09765625 C-67.98689007 117.0615398 -70.76100131 115.35027093 -72.1328125 111.09765625 C-72.1328125 110.10765625 -72.1328125 109.11765625 -72.1328125 108.09765625 C-74.1128125 108.09765625 -76.0928125 108.09765625 -78.1328125 108.09765625 C-78.1328125 105.12765625 -78.1328125 102.15765625 -78.1328125 99.09765625 C-79.04047363 99.10289307 -79.94813477 99.10812988 -80.88330078 99.11352539 C-84.27149092 99.13063309 -87.65963471 99.14313838 -91.04785156 99.15258789 C-92.51042407 99.1575967 -93.97299161 99.16440563 -95.43554688 99.1730957 C-97.54558541 99.18531323 -99.65555737 99.1909192 -101.765625 99.1953125 C-103.03293457 99.20054932 -104.30024414 99.20578613 -105.60595703 99.21118164 C-108.8800085 99.10579372 -111.92170402 98.72215851 -115.1328125 98.09765625 C-113.88839941 94.36441699 -112.40593282 93.49905461 -109.3203125 91.09765625 C-105.10296406 87.73687147 -101.07323287 84.27752637 -97.1328125 80.59765625 C-92.54605662 76.32761022 -87.79830766 72.34000867 -82.9140625 68.41015625 C-79.89262062 65.89794615 -77.00839477 63.27364798 -74.1328125 60.59765625 C-69.54521137 56.32847473 -64.79838522 52.34007108 -59.9140625 48.41015625 C-56.89262062 45.89794615 -54.00839477 43.27364798 -51.1328125 40.59765625 C-46.54521137 36.32847473 -41.79838522 32.34007108 -36.9140625 28.41015625 C-33.36854484 25.46219775 -30.00658442 22.34240236 -26.63305664 19.20117188 C-22.37478079 15.26040819 -17.94434396 11.59467991 -13.41015625 7.97265625 C-11.16122124 6.19471151 -11.16122124 6.19471151 -9.44921875 4.34765625 C-8.1328125 3.09765625 -8.1328125 3.09765625 -6.1328125 3.09765625 C-6.1328125 2.43765625 -6.1328125 1.77765625 -6.1328125 1.09765625 C-3.8362755 -0.05061225 -2.54968083 -0.0179555 0 0 Z " fill="#444A58" transform="translate(284.1328125,31.90234375)"/>
<path d="M0 0 C5.28 0 10.56 0 16 0 C16 0.33 16 0.66 16 1 C11.38 1.33 6.76 1.66 2 2 C-2.67410532 11.09567383 -2.67410532 11.09567383 -3 21 C-1.24879594 25.96174484 1.5081399 29.30126147 6 32 C11.47515825 34.42797196 17.01880766 36.35338461 23 37 C23.33 36.01 23.66 35.02 24 34 C26.546875 32.2109375 26.546875 32.2109375 29.75 30.375 C30.79671875 29.76398438 31.8434375 29.15296875 32.921875 28.5234375 C37.62261808 26.1969276 41.75495126 25.87566642 46.95703125 25.90234375 C48.06884766 25.90556641 49.18066406 25.90878906 50.32617188 25.91210938 C51.47666016 25.92048828 52.62714844 25.92886719 53.8125 25.9375 C54.98232422 25.94201172 56.15214844 25.94652344 57.35742188 25.95117188 C60.23833358 25.9629307 63.11914044 25.97936574 66 26 C66 26.33 66 26.66 66 27 C64.865625 26.99613281 63.73125 26.99226563 62.5625 26.98828125 C57.16895143 27.20533935 57.16895143 27.20533935 49 30 C46.36 36.27 43.72 42.54 41 49 C130.1 49 219.2 49 311 49 C311 51.97 311 54.94 311 58 C308.36 58 305.72 58 303 58 C303 59.98 303 61.96 303 64 C300.03 64 297.06 64 294 64 C294 62.02 294 60.04 294 58 C291.69 58 289.38 58 287 58 C287 59.98 287 61.96 287 64 C284.03 64 281.06 64 278 64 C278 62.02 278 60.04 278 58 C275.69 58 273.38 58 271 58 C271 59.98 271 61.96 271 64 C268.03 64 265.06 64 262 64 C262 62.02 262 60.04 262 58 C259.69 58 257.38 58 255 58 C255 59.98 255 61.96 255 64 C252.03 64 249.06 64 246 64 C246 62.02 246 60.04 246 58 C243.69 58 241.38 58 239 58 C239 59.98 239 61.96 239 64 C236.03 64 233.06 64 230 64 C230 62.02 230 60.04 230 58 C227.69 58 225.38 58 223 58 C223 59.98 223 61.96 223 64 C220.03 64 217.06 64 214 64 C214 62.02 214 60.04 214 58 C211.69 58 209.38 58 207 58 C207 59.98 207 61.96 207 64 C204.03 64 201.06 64 198 64 C198 62.02 198 60.04 198 58 C195.69 58 193.38 58 191 58 C191 59.98 191 61.96 191 64 C188.03 64 185.06 64 182 64 C182 62.02 182 60.04 182 58 C179.69 58 177.38 58 175 58 C175 59.98 175 61.96 175 64 C172.03 64 169.06 64 166 64 C166 62.02 166 60.04 166 58 C163.69 58 161.38 58 159 58 C159 59.98 159 61.96 159 64 C156.03 64 153.06 64 150 64 C150 62.02 150 60.04 150 58 C147.69 58 145.38 58 143 58 C143 59.98 143 61.96 143 64 C140.03 64 137.06 64 134 64 C134 62.02 134 60.04 134 58 C131.69 58 129.38 58 127 58 C127 59.98 127 61.96 127 64 C124.03 64 121.06 64 118 64 C118 62.02 118 60.04 118 58 C115.69 58 113.38 58 111 58 C111 59.98 111 61.96 111 64 C108.03 64 105.06 64 102 64 C102 62.02 102 60.04 102 58 C99.69 58 97.38 58 95 58 C95 59.98 95 61.96 95 64 C92.03 64 89.06 64 86 64 C86 62.02 86 60.04 86 58 C83.69 58 81.38 58 79 58 C79 59.98 79 61.96 79 64 C76.03 64 73.06 64 70 64 C70 62.02 70 60.04 70 58 C67.69 58 65.38 58 63 58 C63 59.98 63 61.96 63 64 C60.03 64 57.06 64 54 64 C54 62.02 54 60.04 54 58 C51.69 58 49.38 58 47 58 C47 59.98 47 61.96 47 64 C44.03 64 41.06 64 38 64 C38 62.02 38 60.04 38 58 C35.69 58 33.38 58 31 58 C31 59.98 31 61.96 31 64 C28.03 64 25.06 64 22 64 C22 62.02 22 60.04 22 58 C20.68 58 19.36 58 18 58 C18 55.03 18 52.06 18 49 C19.65 49 21.3 49 23 49 C23.020625 47.72125 23.04125 46.4425 23.0625 45.125 C23.07410156 44.40570313 23.08570312 43.68640625 23.09765625 42.9453125 C23.12649242 40.91814596 23.12649242 40.91814596 22 39 C19.84757349 38.51511271 17.67634705 38.11272451 15.5 37.75 C7.34610223 36.09763172 2.2055725 33.28375719 -3.5625 27.375 C-6.23792349 21.09357093 -5.98408556 15.00333379 -3.87109375 8.5546875 C-2.67164424 5.66370664 -1.34566116 2.82588844 0 0 Z " fill="#D9D9D9" transform="translate(5,102)"/>
<path d="M0 0 C5.07375 0.185625 10.1475 0.37125 15.375 0.5625 C15.375 15.7425 15.375 30.9225 15.375 46.5625 C9.69056348 45.93089594 4.98070861 45.28179335 -0.4375 44 C-17.77240677 40.46086145 -37.31949299 40.25069284 -53.625 47.5625 C-54.29418457 47.85721191 -54.96336914 48.15192383 -55.65283203 48.45556641 C-64.74835327 52.52033223 -72.81850108 57.34376357 -80.625 63.5625 C-80.625 58.04761979 -75.27472155 54.38172966 -71.625 50.5625 C-70.74714844 49.64339844 -69.86929688 48.72429687 -68.96484375 47.77734375 C-63.74663272 42.43900125 -58.34487891 37.59295622 -52.51171875 32.94140625 C-47.53058888 28.83652385 -42.86886039 24.38607008 -38.15332031 19.98193359 C-35.19190358 17.23150598 -32.18897328 14.52977195 -29.1418457 11.87475586 C-26.61355218 9.63621695 -26.61355218 9.63621695 -24.55200195 7.19238281 C-17.09978905 -0.85750339 -10.34721241 -0.53672932 0 0 Z " fill="#50505D" transform="translate(110.625,34.4375)"/>
<path d="M0 0 C12.54 0 25.08 0 38 0 C38 19.14 38 38.28 38 58 C25.46 58 12.92 58 0 58 C0 38.86 0 19.72 0 0 Z " fill="#FDFDFD" transform="translate(129,48)"/>
<path d="M0 0 C33.99 0 67.98 0 103 0 C103 6.27 103 12.54 103 19 C69.01 19 35.02 19 0 19 C0 12.73 0 6.46 0 0 Z " fill="#C4C1C4" transform="translate(187,0)"/>
<path d="M0 0 C2.66021969 -0.30440801 5.08392329 -0.42011287 7.74609375 -0.3984375 C8.51301041 -0.40130768 9.27992706 -0.40417786 10.07008362 -0.40713501 C11.69329567 -0.40917786 13.31653221 -0.4036325 14.93969727 -0.39111328 C17.42455194 -0.37508353 19.90777472 -0.39094195 22.39257812 -0.41015625 C23.96875359 -0.40817343 25.54492805 -0.40432894 27.12109375 -0.3984375 C27.86491806 -0.40451019 28.60874237 -0.41058289 29.37510681 -0.4168396 C34.54170853 -0.3464437 34.54170853 -0.3464437 36.6962986 1.28231049 C39.00575289 4.32512797 38.41430453 8.15618755 38.38818359 11.83007812 C38.39344055 12.73277939 38.39869751 13.63548065 38.40411377 14.5655365 C38.41733515 17.55428284 38.40856807 20.54249809 38.3984375 23.53125 C38.40045762 25.60485944 38.40336854 27.67846819 38.40713501 29.7520752 C38.41156126 34.09992226 38.40511754 38.44758455 38.39111328 42.79541016 C38.37402132 48.37440956 38.38386088 53.95297602 38.40183067 59.53195953 C38.41266032 63.8144254 38.40922592 68.09678827 38.4014473 72.3792572 C38.39944302 74.43660025 38.40191249 76.49395259 38.40888596 78.55128479 C38.41648689 81.42441657 38.40491522 84.29684278 38.38818359 87.16992188 C38.39729263 88.45110146 38.39729263 88.45110146 38.40658569 89.75816345 C38.34396486 95.54913685 38.34396486 95.54913685 36.68956947 97.71768951 C33.90752928 99.82913824 30.72881931 99.4267713 27.375 99.3984375 C26.2600415 99.40274277 26.2600415 99.40274277 25.12255859 99.40713501 C23.5524011 99.40917476 21.98221814 99.403651 20.41210938 99.39111328 C18.00853668 99.37505703 15.60664539 99.39096352 13.203125 99.41015625 C11.67707962 99.4081738 10.15103529 99.40433009 8.625 99.3984375 C7.90618652 99.40451019 7.18737305 99.41058289 6.44677734 99.4168396 C1.45665042 99.34649176 1.45665042 99.34649176 -0.68999004 97.71768951 C-3.00858411 94.67754108 -2.40520671 90.84533938 -2.37231445 87.16992188 C-2.37596512 86.26722061 -2.37961578 85.36451935 -2.38337708 84.4344635 C-2.39149384 81.44570193 -2.37786303 78.4574806 -2.36328125 75.46875 C-2.36276278 73.39514161 -2.36327997 71.32153271 -2.36479187 69.2479248 C-2.3647021 64.90007194 -2.35426202 60.55240429 -2.33618164 56.20458984 C-2.31349438 50.62566094 -2.31294985 45.0470028 -2.31969929 39.46804047 C-2.32303749 35.18558334 -2.31641197 30.90318818 -2.30657005 26.6207428 C-2.3027152 24.56340357 -2.30157101 22.50605744 -2.3031559 20.44871521 C-2.30352591 17.5757021 -2.29092439 14.7030388 -2.2746582 11.83007812 C-2.27713562 10.9759584 -2.27961304 10.12183868 -2.28216553 9.24183655 C-2.24663907 5.31900327 -2.22502149 3.33753223 0 0 Z M-1 16 C-1 35.14 -1 54.28 -1 74 C11.54 74 24.08 74 37 74 C37 54.86 37 35.72 37 16 C24.46 16 11.92 16 -1 16 Z " fill="#B4ABA7" transform="translate(130,32)"/>
<path d="M0 0 C35.97 0 71.94 0 109 0 C109 0.66 109 1.32 109 2 C107.32464541 3.51984883 105.58294378 4.96706453 103.8125 6.375 C102.84957031 7.14585938 101.88664062 7.91671875 100.89453125 8.7109375 C99.93933594 9.46632813 98.98414063 10.22171875 98 11 C96.95030029 12.05501709 96.95030029 12.05501709 95.87939453 13.13134766 C91.84558906 15.74918275 88.72678461 15.39406566 84.03515625 15.1875 C82.24677586 15.16298249 80.45836032 15.14092896 78.66992188 15.12109375 C75.8773774 15.0698723 73.08931146 15.00109415 70.29858398 14.88720703 C59.91577698 14.50022412 52.03004757 14.48174398 44.0390625 21.73828125 C42.45496737 23.2781218 40.92885249 24.84775526 39.43214417 26.47250366 C37.19102796 28.8628334 34.75396773 31.00338658 32.3125 33.1875 C31.44238281 33.98671875 30.57226562 34.7859375 29.67578125 35.609375 C25.99192879 38.90064173 22.16766436 42.0023502 18.3125 45.08984375 C16.02563721 46.84659254 16.02563721 46.84659254 14.60546875 48.7421875 C12.01342752 50.77293513 9.52119266 50.2828077 6.3125 50.1875 C4.54326172 50.14689453 4.54326172 50.14689453 2.73828125 50.10546875 C1.83464844 50.07066406 0.93101562 50.03585938 0 50 C-0.421875 47.41796875 -0.421875 47.41796875 0 44 C1.9252479 41.41207619 4.31101225 39.40814224 6.75 37.3125 C7.4294165 36.705271 8.10883301 36.09804199 8.80883789 35.47241211 C10.19846751 34.2311311 11.59375349 32.99615336 12.99462891 31.76757812 C15.34389207 29.69688598 17.64476271 27.57861848 19.94091797 25.44946289 C24.88050862 20.87167912 29.92203678 16.42274216 35 12 C38.3 9.03 41.6 6.06 45 3 C30.15 2.67 15.3 2.34 0 2 C0 1.34 0 0.68 0 0 Z " fill="#F2F1F1" transform="translate(169,33)"/>
<path d="M0 0 C0.98111 -0.00021904 0.98111 -0.00021904 1.98204041 -0.0004425 C4.13552207 0.00025198 6.28891633 0.00802256 8.44238281 0.01586914 C9.93882195 0.01773497 11.4352617 0.0191581 12.93170166 0.02015686 C16.86409196 0.02396904 20.79644514 0.03378822 24.7288208 0.04486084 C28.74401345 0.0551029 32.75921211 0.05966047 36.77441406 0.06469727 C44.64812899 0.07541167 52.52181378 0.09247248 60.39550781 0.11352539 C60.42237334 2.09261937 60.44184157 4.0718151 60.45800781 6.05102539 C60.46960938 7.15317383 60.48121094 8.25532227 60.49316406 9.39086914 C60.39550781 12.11352539 60.39550781 12.11352539 59.39550781 13.11352539 C57.89132042 13.20664429 56.38279425 13.23098567 54.87573242 13.22705078 C53.43435158 13.22693748 53.43435158 13.22693748 51.96385193 13.2268219 C50.91907181 13.22166061 49.87429169 13.21649933 48.79785156 13.21118164 C47.73385635 13.20976669 46.66986115 13.20835175 45.57362366 13.20689392 C42.16005698 13.20127603 38.74655482 13.1887205 35.33300781 13.17602539 C33.02506605 13.1710127 30.71712326 13.16644939 28.40917969 13.16235352 C22.73793355 13.15130079 17.06672529 13.13454526 11.39550781 13.11352539 C10.40550781 11.13352539 9.41550781 9.15352539 8.39550781 7.11352539 C7.66847656 7.52344727 6.94144531 7.93336914 6.19238281 8.35571289 C0.89400042 11.19510243 -3.65695271 13.36573911 -9.66699219 14.05102539 C-16.61347687 15.00112523 -21.01019994 18.0355079 -26.60449219 22.11352539 C-27.96820374 23.07960093 -29.33285732 24.0443475 -30.69824219 25.00805664 C-52.81989497 40.71925129 -73.18924624 57.18698532 -92.10131836 76.65429688 C-94.45842048 79.05822023 -96.45968546 80.83230783 -99.60449219 82.11352539 C-99.93449219 81.45352539 -100.26449219 80.79352539 -100.60449219 80.11352539 C-92.30331156 69.4099359 -83.01395859 59.67901789 -72.68261719 50.91040039 C-70.52354273 49.0435315 -68.42886879 47.11435144 -66.3371582 45.17260742 C-61.16530068 40.37256142 -55.8657127 35.83194187 -50.36230469 31.41040039 C-47.46142526 28.9943705 -44.72618407 26.45304962 -41.97949219 23.86352539 C-37.15078949 19.35292435 -32.08460701 15.21286712 -26.85449219 11.17602539 C-26.15759277 10.63236328 -25.46069336 10.08870117 -24.74267578 9.52856445 C-16.8368173 3.51344103 -10.04349636 -0.01887875 0 0 Z " fill="#B2DDEF" transform="translate(116.6044921875,5.886474609375)"/>
<path d="M0 0 C1.87685645 0.0452235 3.75381833 0.08627419 5.63085938 0.12304688 C10.19404463 0.22143296 14.75209 0.37626336 19.3125 0.5625 C16.14717574 4.42830093 13.21373953 7.65912015 9.25 10.75 C5.11847809 14.04967186 1.17562449 17.4593452 -2.6875 21.0625 C-9.01312171 26.94483336 -15.48919138 32.76362759 -22.6875 37.5625 C-22.6875 36.9025 -22.6875 36.2425 -22.6875 35.5625 C-34.8975 35.5625 -47.1075 35.5625 -59.6875 35.5625 C-56.63559833 31.74762291 -54.46382528 29.39845913 -50.75 26.5 C-45.86339546 22.58941501 -41.25056288 18.47992099 -36.71899414 14.16381836 C-35.68112069 13.18573453 -34.62532484 12.22645107 -33.5559082 11.28295898 C-31.58150282 9.51811988 -31.58150282 9.51811988 -29.55932617 7.20336914 C-20.75796239 -1.58243078 -11.62241546 -0.48900875 0 0 Z " fill="#82797E" transform="translate(241.6875,47.4375)"/>
<path d="M0 0 C15.18 0 30.36 0 46 0 C39.30057143 7.816 39.30057143 7.816 36.4375 10.1875 C32.70003652 13.36542001 29.09284442 16.66107048 25.5 20 C21.3812038 23.81965264 17.23699923 27.59455622 12.984375 31.265625 C9.60919691 34.2155838 6.3117635 37.25229567 3.00390625 40.27734375 C1 42 1 42 0 42 C0 28.14 0 14.28 0 0 Z " fill="#4E4F5B" transform="translate(169,35)"/>
<path d="M0 0 C1.82640015 0.00700928 1.82640015 0.00700928 3.68969727 0.01416016 C16.05656639 0.21400577 28.04294958 1.82967983 39.5625 6.4375 C39.5625 11.0575 39.5625 15.6775 39.5625 20.4375 C34.34320221 20.4375 30.83727894 19.76682307 26.0625 18.125 C-0.44838481 9.5140789 -23.28521881 12.80461449 -49.4375 20.4375 C-50.82131932 20.83436432 -52.20539512 21.2303366 -53.58984375 21.625 C-54.52957031 21.893125 -55.46929687 22.16125 -56.4375 22.4375 C-42.21375334 7.37859757 -20.31929392 -0.17156577 0 0 Z " fill="#FB6529" transform="translate(86.4375,75.5625)"/>
<path d="M0 0 C1.22203125 0.0928125 1.22203125 0.0928125 2.46875 0.1875 C8.3484623 0.67423115 8.3484623 0.67423115 10.75 1.875 C11.46277708 10.25013073 7.90574893 17.354494 2.75 23.875 C-2.50984209 27.8467175 -6.3627062 28.98366473 -12.859375 29.41015625 C-14.17164062 29.49716797 -15.48390625 29.58417969 -16.8359375 29.67382812 C-17.52010742 29.71709229 -18.20427734 29.76035645 -18.90917969 29.80493164 C-20.97885706 29.93615943 -23.04801123 30.07400815 -25.1171875 30.21289062 C-31.17100863 30.60861498 -37.17961116 30.92498801 -43.25 30.875 C-38.95811255 25.61743787 -34.42757157 21.24408642 -29.25 16.875 C-28.11109661 15.89816345 -26.97315249 14.92020788 -25.8359375 13.94140625 C-19.05075013 8.1046763 -19.05075013 8.1046763 -16.89257812 6.30029297 C-15.24212768 4.90934383 -15.24212768 4.90934383 -13.81054688 3.39111328 C-9.39470298 -0.95907319 -5.7621318 -0.61338822 0 0 Z " fill="#C5D3DA" transform="translate(103.25,43.125)"/>
<path d="M0 0 C4.43153933 2.34610906 6.77784948 4.53964005 9 9 C9.60328071 13.10814117 9.4637831 17.22704908 9.4375 21.375 C9.4674707 23.04175781 9.4674707 23.04175781 9.49804688 24.7421875 C9.49411746 31.34359665 9.12792984 35.73308073 5 41 C1.1050178 43.79204664 -3.38602318 43.67561803 -8 43 C-11.60466617 40.8525393 -13.45496535 38.85539846 -15 35 C-15.45289337 30.7199674 -15.37029886 26.42654247 -15.375 22.125 C-15.39949219 20.95324219 -15.42398438 19.78148437 -15.44921875 18.57421875 C-15.4712187 12.11356611 -15.48133018 7.84379071 -11 3 C-7.33394266 0.1057442 -4.63689657 -0.6624138 0 0 Z " fill="#E9EBED" transform="translate(151,56)"/>
<path d="M0 0 C17.16 0 34.32 0 52 0 C52 3.96 52 7.92 52 12 C51 13 51 13 49.05747986 13.12025452 C48.20698563 13.11803391 47.35649139 13.11581329 46.48022461 13.11352539 C45.03884377 13.11341209 45.03884377 13.11341209 43.56834412 13.11329651 C42.523564 13.10813522 41.47878387 13.10297394 40.40234375 13.09765625 C39.33834854 13.0962413 38.27435333 13.09482635 37.17811584 13.09336853 C33.76454917 13.08775064 30.351047 13.07519511 26.9375 13.0625 C24.62955824 13.05748731 22.32161545 13.052924 20.01367188 13.04882812 C14.34242574 13.0377754 8.67121747 13.02101987 3 13 C0.53722359 7.86921582 0 6.07514391 0 0 Z " fill="#C5C0C2" transform="translate(125,6)"/>
<path d="M0 0 C12.21 0 24.42 0 37 0 C28.5330585 8.4669415 19.7953726 16.5211483 10.453125 24.01953125 C8.21814454 25.8238865 6.03973201 27.67495929 3.875 29.5625 C1 32 1 32 0 32 C0 21.44 0 10.88 0 0 Z " fill="#F0EDEC" transform="translate(169,96)"/>
<path d="M0 0 C4.94790177 -0.0493651 9.89566083 -0.08570269 14.84375 -0.10986328 C16.52769466 -0.11993317 18.21162179 -0.13358988 19.89550781 -0.15087891 C22.31319501 -0.17508426 24.73065143 -0.18647296 27.1484375 -0.1953125 C27.9036972 -0.20563507 28.65895691 -0.21595764 29.43710327 -0.22659302 C31.2929398 -0.22699318 33.1481928 -0.12222716 35 0 C37 2 37 2 37 16 C24.46 16 11.92 16 -1 16 C-1 2 -1 2 0 0 Z " fill="#B7B7B7" transform="translate(130,32)"/>
<path d="M0 0 C16.5 0 33 0 50 0 C48.53550266 5.85798935 45.05596344 9.02562791 39.91546631 12.15203857 C33.37299856 15.04833607 25.27782547 13.87182504 18.3125 13.5625 C16.5320031 13.51727022 14.75139487 13.47622064 12.97070312 13.43945312 C8.64434528 13.34112739 4.32342452 13.18634078 0 13 C0 8.71 0 4.42 0 0 Z " fill="#FB6325" transform="translate(169,83)"/>
<path d="M0 0 C5.28 0 10.56 0 16 0 C16 0.33 16 0.66 16 1 C11.38 1.33 6.76 1.66 2 2 C-2.67410532 11.09567383 -2.67410532 11.09567383 -3 21 C-1.24879594 25.96174484 1.5081399 29.30126147 6 32 C11.47515825 34.42797196 17.01880766 36.35338461 23 37 C23.33 36.01 23.66 35.02 24 34 C26.546875 32.2109375 26.546875 32.2109375 29.75 30.375 C30.79671875 29.76398438 31.8434375 29.15296875 32.921875 28.5234375 C37.62261808 26.1969276 41.75495126 25.87566642 46.95703125 25.90234375 C48.06884766 25.90556641 49.18066406 25.90878906 50.32617188 25.91210938 C51.47666016 25.92048828 52.62714844 25.92886719 53.8125 25.9375 C54.98232422 25.94201172 56.15214844 25.94652344 57.35742188 25.95117188 C60.23833358 25.9629307 63.11914044 25.97936574 66 26 C66 26.33 66 26.66 66 27 C64.865625 26.99613281 63.73125 26.99226563 62.5625 26.98828125 C57.77054222 27.23624184 53.21577695 27.54071299 49 30 C44.71089667 35.41240857 42.80129185 42.42239777 41 49 C38.75067773 49.1954625 36.50049858 49.38108226 34.25 49.5625 C32.37054688 49.71912109 32.37054688 49.71912109 30.453125 49.87890625 C27.60547636 49.97876723 25.65713933 49.90584295 23 49 C23.03255208 46.98177083 23.06510417 44.96354167 23.09765625 42.9453125 C23.12649242 40.91814596 23.12649242 40.91814596 22 39 C19.84757349 38.51511271 17.67634705 38.11272451 15.5 37.75 C7.34610223 36.09763172 2.2055725 33.28375719 -3.5625 27.375 C-6.23792349 21.09357093 -5.98408556 15.00333379 -3.87109375 8.5546875 C-2.67164424 5.66370664 -1.34566116 2.82588844 0 0 Z " fill="#BABCBD" transform="translate(5,102)"/>
<path d="M0 0 C0.78628281 -0.00004028 1.57256561 -0.00008057 2.38267517 -0.00012207 C4.04108699 0.00522894 5.69949851 0.02279419 7.35766602 0.05175781 C9.89743366 0.09366897 12.43455375 0.09282179 14.97460938 0.0859375 C16.58725803 0.09642855 18.19989301 0.10936621 19.8125 0.125 C20.57192398 0.12520142 21.33134796 0.12540283 22.11378479 0.12561035 C27.37220648 0.24385533 27.37220648 0.24385533 29.53989601 1.86575985 C31.1272411 3.97578059 31.21666384 5.04175928 31.22079468 7.66151428 C31.23348389 8.90024544 31.23348389 8.90024544 31.24642944 10.16400146 C31.24035675 11.06644592 31.23428406 11.96889038 31.22802734 12.89868164 C31.2332843 13.85175705 31.23854126 14.80483246 31.24395752 15.78678894 C31.25718058 18.94266054 31.24841185 22.09802937 31.23828125 25.25390625 C31.24030115 27.4420125 31.24321188 29.6301181 31.24697876 31.81822205 C31.25140511 36.40565394 31.24496034 40.99291071 31.23095703 45.58032227 C31.21385501 51.47105101 31.223711 57.36137004 31.24167442 63.25208378 C31.2524952 67.77041228 31.24907393 72.28864302 31.24129105 76.80697441 C31.23928484 78.97957851 31.24176297 81.15219138 31.24872971 83.32478523 C31.25631719 86.35616837 31.24477832 89.38687999 31.22802734 92.41821289 C31.23713638 93.77491592 31.23713638 93.77491592 31.24642944 95.1590271 C31.22079468 97.65296936 31.22079468 97.65296936 30.83984375 101.59375 C27.09064536 104.09321559 24.1202317 103.89972184 19.77734375 103.89453125 C18.989646 103.89881638 18.20194824 103.9031015 17.39038086 103.90751648 C15.72608399 103.91325579 14.06176204 103.91376297 12.39746094 103.90942383 C9.84917541 103.90626158 7.30204842 103.92973449 4.75390625 103.95507812 C3.13672022 103.95735092 1.51953106 103.95805471 -0.09765625 103.95703125 C-0.86021729 103.966241 -1.62277832 103.97545074 -2.40844727 103.98493958 C-5.27155224 103.95985131 -7.58665928 103.90532212 -10.13427734 102.52124023 C-11.74024652 99.50383741 -11.58544231 96.78821005 -11.63671875 93.390625 C-11.65229828 92.67577942 -11.66787781 91.96093384 -11.68392944 91.22442627 C-11.73141453 88.93088106 -11.7591004 86.63762977 -11.78515625 84.34375 C-11.8342305 81.35926103 -11.89141262 78.37495582 -11.94921875 75.390625 C-11.96191299 74.64247528 -11.97460724 73.89432556 -11.98768616 73.12350464 C-12.07691422 68.55071429 -12.32684214 64.02159126 -12.6953125 59.4609375 C-13.37734912 50.00302745 -13.21182278 40.55882117 -13.02807617 31.08349609 C-12.97214028 27.93975136 -12.94405749 24.79644596 -12.91601562 21.65234375 C-12.8806139 19.64059422 -12.8435653 17.62887285 -12.8046875 15.6171875 C-12.80032181 14.6838559 -12.79595612 13.75052429 -12.79145813 12.78890991 C-12.68640974 8.79614898 -12.42095035 6.12024785 -10.62988281 2.50439453 C-7.20142847 -0.14794668 -4.16149132 -0.09008288 0 0 Z M-8.16015625 2.59375 C-10.77882551 6.52175389 -10.44803531 9.8657777 -10.43481445 14.42382812 C-10.43992538 15.32652939 -10.44503632 16.22923065 -10.45030212 17.1592865 C-10.46422054 20.1479248 -10.46323984 23.13633311 -10.4609375 26.125 C-10.46482284 28.19860928 -10.46915717 30.27221776 -10.47392273 32.3458252 C-10.48138952 36.69362975 -10.48109006 41.04135312 -10.47583008 45.38916016 C-10.47003104 50.96813873 -10.48697481 56.5467858 -10.51017475 62.12570953 C-10.5248859 66.40816195 -10.52578743 70.690534 -10.52266502 74.9730072 C-10.52317943 77.03035642 -10.52843942 79.08771 -10.53847694 81.14503479 C-10.55077501 84.01813496 -10.54408993 86.89058262 -10.5324707 89.76367188 C-10.54011444 90.6177916 -10.54775818 91.47191132 -10.55563354 92.35191345 C-10.63874465 96.60581966 -10.63874465 96.60581966 -8.85014629 100.31143951 C-6.06771054 102.42266293 -2.88919216 102.02052313 0.46484375 101.9921875 C1.20814941 101.99505768 1.95145508 101.99792786 2.71728516 102.00088501 C4.28744265 102.00292476 5.85762561 101.997401 7.42773438 101.98486328 C9.83130707 101.96880703 12.23319836 101.98471352 14.63671875 102.00390625 C16.16276413 102.0019238 17.68880846 101.99808009 19.21484375 101.9921875 C19.93365723 101.99826019 20.6524707 102.00433289 21.39306641 102.0105896 C25.21872765 102.00680791 25.21872765 102.00680791 28.52941322 100.31143951 C30.84840528 97.27174511 30.25416372 93.43973311 30.22802734 89.76367188 C30.2332843 88.86097061 30.23854126 87.95826935 30.24395752 87.0282135 C30.2571789 84.03946716 30.24841182 81.05125191 30.23828125 78.0625 C30.24030137 75.98889056 30.24321229 73.91528181 30.24697876 71.8416748 C30.25140501 67.49382774 30.24496129 63.14616545 30.23095703 58.79833984 C30.21386507 53.21934044 30.22370463 47.64077398 30.24167442 42.06179047 C30.25250407 37.7793246 30.24906967 33.49696173 30.24129105 29.2144928 C30.23928677 27.15714975 30.24175624 25.09979741 30.24872971 23.04246521 C30.25633064 20.16933343 30.24475897 17.29690722 30.22802734 14.42382812 C30.23410004 13.5697084 30.24017273 12.71558868 30.24642944 11.83558655 C30.31979356 7.58384942 30.31979356 7.58384942 28.53614235 3.87606049 C25.69564903 1.72880035 22.38172201 2.1673847 18.9609375 2.1953125 C18.19306412 2.19244232 17.42519073 2.18957214 16.63404846 2.18661499 C15.01261659 2.18457523 13.39116007 2.190099 11.76977539 2.20263672 C9.28280929 2.21871467 6.79746288 2.20277495 4.31054688 2.18359375 C2.73567349 2.18557577 1.16080111 2.18941859 -0.4140625 2.1953125 C-1.15991104 2.18923981 -1.90575958 2.18316711 -2.67420959 2.1769104 C-4.99014196 2.17368145 -4.99014196 2.17368145 -8.16015625 2.59375 Z " fill="#7B2402" transform="translate(138.16015625,29.40625)"/>
<path d="M0 0 C3.96 0 7.92 0 12 0 C12 3 12 3 11.82421875 5.33984375 C11.46509124 10.91783295 11.46509124 10.91783295 14.0625 15.6875 C18.72316093 17.76992297 22.31581381 16.5613954 27 15 C28.19211438 11.42365687 28.25926574 8.75935317 28 5 C27.05566654 3.30117332 26.06260656 1.62746584 25 0 C28.47914941 -0.02887814 31.95826831 -0.04675687 35.4375 -0.0625 C36.92733398 -0.07506836 36.92733398 -0.07506836 38.44726562 -0.08789062 C39.86362305 -0.09272461 39.86362305 -0.09272461 41.30859375 -0.09765625 C42.62041626 -0.10551147 42.62041626 -0.10551147 43.95874023 -0.11352539 C46 0 46 0 47 1 C47 3.64 47 6.28 47 9 C41.72 9 36.44 9 31 9 C30.67 10.65 30.34 12.3 30 14 C26.68781764 17.73682113 24.76551698 19.83023875 19.75 20.3125 C15.36563187 19.94713599 13.38437523 18.73973233 10 16 C9.67 15.34 9.34 14.68 9 14 C6.67843403 13.59270772 4.3431213 13.25561323 2 13 C1.93941406 12.31292969 1.87882813 11.62585938 1.81640625 10.91796875 C1.73261719 10.01691406 1.64882812 9.11585938 1.5625 8.1875 C1.48128906 7.29417969 1.40007812 6.40085938 1.31640625 5.48046875 C1.06510233 2.87256441 1.06510233 2.87256441 0 0 Z " fill="#4A4C4F" transform="translate(232,131)"/>
<path d="M0 0 C0.68384766 0.00902344 1.36769531 0.01804687 2.07226562 0.02734375 C3.73583287 0.05061042 5.39921631 0.08646833 7.0625 0.125 C7.0625 2.435 7.0625 4.745 7.0625 7.125 C1.1452803 10.46130473 -4.18597919 13.28554088 -11 14.0625 C-17.82745773 14.9080613 -22.44049249 18.19434409 -27.9375 22.125 C-28.5975 22.455 -29.2575 22.785 -29.9375 23.125 C-28.59501425 20.08466462 -27.1520579 18.20922082 -24.6875 16 C-21.03449351 12.52058679 -18.89673532 8.76993957 -16.6875 4.26171875 C-12.63423448 -0.68724607 -5.90976212 -0.10459756 0 0 Z " fill="#E8E8E9" transform="translate(117.9375,5.875)"/>
<path d="M0 0 C4.63235294 2.26470588 4.63235294 2.26470588 6 5 C6.58179215 8.74850892 6.98891455 12.42833223 4.90625 15.73828125 C2.10726725 18.38093784 0.18572168 18.9967979 -3.625 19.0625 C-7.22152729 17.93025993 -8.6929775 16.92814395 -11 14 C-12.42662219 11.14675563 -12.31033868 9.16545451 -12 6 C-8.50318172 0.75477258 -6.27296016 -0.49199688 0 0 Z " fill="#75797C" transform="translate(114,130)"/>
<path d="M0 0 C2.91368224 1.98378365 4.63558769 3.41448681 5.4453125 6.9375 C5.65231499 10.58074386 5.16906633 12.6821553 3.4375 15.9375 C0.22755042 18.65361118 -1.82044153 19 -6 19 C-8.90900097 17.77175515 -10.46552692 16.73808187 -12.3125 14.1875 C-13.24084633 11.23367076 -13.37765935 9.084218 -13 6 C-9.27891473 0.41837209 -6.70473214 -0.68183717 0 0 Z " fill="#75797C" transform="translate(87,130)"/>
<path d="M0 0 C3.38318343 2.65821555 3.88402829 4.27839823 4.5625 8.5 C3.84097547 12.98948597 2.66182182 14.35102251 -1 17 C-4.4375 18.125 -4.4375 18.125 -8 18 C-12.30645669 15.65102362 -12.30645669 15.65102362 -14 13 C-14.99425747 8.7269698 -14.69847778 5.3017086 -12.625 1.4375 C-8.50842752 -0.8168135 -4.57461461 -0.86628915 0 0 Z " fill="#74787C" transform="translate(257,131)"/>
<path d="M0 0 C2.5625 1.4375 2.5625 1.4375 4 4 C4.80800186 7.832646 5.0640843 11.33431327 2.89453125 14.73046875 C0.11286573 17.3928135 -1.81766613 17.99685631 -5.625 18.0625 C-9.39206021 16.87657364 -10.90469919 16.35248129 -13 13 C-13.76398394 8.71538902 -13.70980107 5.26529756 -11.5625 1.4375 C-7.72617511 -0.7145847 -4.29295189 -0.74831272 0 0 Z " fill="#75797D" transform="translate(228,131)"/>
<path d="M0 0 C35.97 0 71.94 0 109 0 C109 0.66 109 1.32 109 2 C105.99922243 3.00025919 104.01607298 3.12668534 100.8815918 3.12939453 C99.30044838 3.13406235 99.30044838 3.13406235 97.68736267 3.13882446 C95.96073143 3.13584854 95.96073143 3.13584854 94.19921875 3.1328125 C92.99475601 3.13413177 91.79029327 3.13545105 90.54933167 3.1368103 C87.27414316 3.13840644 83.99901243 3.1350316 80.72383118 3.12857056 C78.6925543 3.12500886 76.66128449 3.12338327 74.63000488 3.12231445 C49.74495845 3.10605646 24.87540633 2.6982049 0 2 C0 1.34 0 0.68 0 0 Z " fill="#D5C0B8" transform="translate(169,33)"/>
<path d="M0 0 C1.60147339 0.04018266 3.20304386 0.07667505 4.8046875 0.109375 C8.70554525 0.19699534 12.60169248 0.33470973 16.5 0.5 C16.5 1.16 16.5 1.82 16.5 2.5 C15.56841064 2.46745117 14.63682129 2.43490234 13.67700195 2.40136719 C-5.57023375 0.86701033 -5.57023375 0.86701033 -22.70874023 7.15209961 C-24.64222223 9.24823273 -26.40682683 11.41589663 -28.09375 13.71484375 C-30.73530912 17.0681563 -33.97288829 19.82466929 -37.125 22.6875 C-38.39589777 23.8762332 -39.6667327 25.06503358 -40.9375 26.25390625 C-44.73700998 29.75531638 -48.71741834 32.99809682 -52.75 36.2265625 C-68.01676798 48.61163271 -68.01676798 48.61163271 -80.5 63.5 C-80.5 64.49 -80.5 65.48 -80.5 66.5 C-83.47 67.49 -86.44 68.48 -89.5 69.5 C-88.5 67.5 -88.5 67.5 -86.375 66.4375 C-83.63505434 64.59101488 -82.52204969 63.35599867 -80.625 60.75 C-73.00198636 50.56378964 -63.33752774 41.72222753 -53.37890625 33.87109375 C-48.40098983 29.77123586 -43.77502411 25.29079745 -39.0859375 20.8671875 C-35.43513173 17.4242294 -31.70807225 14.07358846 -27.94140625 10.7578125 C-25.51906061 8.66927215 -25.51906061 8.66927215 -24.05224609 6.48144531 C-17.63112526 -1.64969678 -9.43080709 -0.41189351 0 0 Z " fill="#C1AEA8" transform="translate(110.5,32.5)"/>
<path d="M0 0 C2.10304477 -0.1080023 4.20766909 -0.18558987 6.3125 -0.25 C8.07013672 -0.31960937 8.07013672 -0.31960937 9.86328125 -0.390625 C13 0 13 0 14.625 1.96875 C15.07875 2.6390625 15.5325 3.309375 16 4 C18.26300895 4.6921369 18.26300895 4.6921369 20.6875 4.75 C21.49574219 4.80671875 22.30398437 4.8634375 23.13671875 4.921875 C23.75160156 4.94765625 24.36648437 4.9734375 25 5 C25 7.31 25 9.62 25 12 C19.39 12 13.78 12 8 12 C7.34 9.69 6.68 7.38 6 5 C4.17901065 2.70396995 2.4891945 1.659463 0 0 Z " fill="#303233" transform="translate(114,128)"/>
<path d="M0 0 C0.33 0 0.66 0 1 0 C1.00808685 1.17097733 1.01617371 2.34195465 1.02450562 3.54841614 C1.10190408 14.5699723 1.18962734 25.59140405 1.28752708 36.61279774 C1.33752774 42.27935641 1.38385745 47.94589609 1.421875 53.61254883 C1.45868015 59.07854965 1.50502709 64.54439304 1.55806351 70.01025963 C1.57663285 72.09827609 1.59173136 74.18632634 1.60334396 76.27439308 C1.62016294 79.19326615 1.64918743 82.11177666 1.68115234 85.03051758 C1.68331253 85.89870117 1.68547272 86.76688477 1.68769836 87.66137695 C1.75413001 92.62568287 1.75413001 92.62568287 4 97 C2.68 96.67 1.36 96.34 0 96 C-0.02505615 95.04859131 -0.0501123 94.09718262 -0.07592773 93.11694336 C-0.17171395 89.51041265 -0.27148089 85.90400024 -0.37231445 82.29760742 C-0.41502895 80.75108653 -0.45673271 79.20453731 -0.49731445 77.65795898 C-0.69775593 70.04365733 -0.93566397 62.46490441 -1.55859375 54.87109375 C-2.2378791 45.33758753 -1.94305153 35.81759594 -1.703125 26.27001953 C-1.62394413 23.08249446 -1.5574143 19.89486948 -1.4921875 16.70703125 C-1.44604905 14.68227475 -1.39920131 12.65753426 -1.3515625 10.6328125 C-1.33171295 9.67883575 -1.3118634 8.72485901 -1.29141235 7.74197388 C-1.25665298 6.43327835 -1.25665298 6.43327835 -1.22119141 5.09814453 C-1.20263092 4.32842316 -1.18407043 3.55870178 -1.16494751 2.76565552 C-1 1 -1 1 0 0 Z " fill="#7A2D10" transform="translate(127,34)"/>
<path d="M0 0 C7.59 0 15.18 0 23 0 C19 3 19 3 17 3 C16.34 7.29 15.68 11.58 15 16 C12.69 16 10.38 16 8 16 C7.96132812 15.11248047 7.96132812 15.11248047 7.921875 14.20703125 C7.54382111 8.94005325 6.94213306 5.82618797 3 2 C2.01 1.34 1.02 0.68 0 0 Z " fill="#313334" transform="translate(86,128)"/>
<path d="M0 0 C3.02138567 -0.08149592 6.04053905 -0.14073421 9.0625 -0.1875 C9.91005859 -0.21263672 10.75761719 -0.23777344 11.63085938 -0.26367188 C18.30535592 -0.34098265 22.84241383 0.75645193 28.375 4.6875 C30.66485531 7.94614026 31.18789908 11.09921511 31 15 C29.7747927 18.60755484 28.66935191 20.44220674 25.75 22.875 C22.19289634 24.33017877 19.81807842 24.46888682 16 24 C10.46153846 20.92307692 10.46153846 20.92307692 9 18 C7.95385405 8.7191909 7.95385405 8.7191909 10.1171875 5.1640625 C11.5 3.8125 11.5 3.8125 14 2 C7.07 1.505 7.07 1.505 0 1 C0 0.67 0 0.34 0 0 Z M11 8 C10.67 8.33 10.34 8.66 10 9 C9.57913672 13.62949609 10.13211823 16.31272343 13 20 C15.6740203 22.10101595 17.04284685 21.99846976 20.5 21.875 C24.43821339 20.89044665 25.85029357 20.43953029 28 17 C28.55313975 13.89785544 28.5811224 11.09931946 28 8 C26.12379387 5.49839182 24.76108697 4.38054348 22 3 C16.41693635 2.25559151 14.57535881 3.81172253 11 8 Z " fill="#4B4E50" transform="translate(92,127)"/>
<path d="M0 0 C5.94 0 11.88 0 18 0 C18 2.64 18 5.28 18 8 C12.39 8 6.78 8 1 8 C0.67 5.36 0.34 2.72 0 0 Z " fill="#303233" transform="translate(261,132)"/>
<path d="M0 0 C-3 2 -3 2 -5.5625 3.125 C-9.17643124 5.90494711 -9.20365839 8.58392378 -10 13 C-12.31 13 -14.62 13 -17 13 C-17 9.37 -17 5.74 -17 2 C-11.16200408 0.30167391 -6.06892629 -0.25287193 0 0 Z " fill="#343637" transform="translate(83,127)"/>
<path d="M0 0 C5.28 0 10.56 0 16 0 C16 0.33 16 0.66 16 1 C11.38 1.33 6.76 1.66 2 2 C-2.67410532 11.09567383 -2.67410532 11.09567383 -3 21 C-1.24964863 25.95932889 1.50687212 29.30593137 6 32 C11.20347927 34.27699974 16.40909691 35.98898678 22 37 C22 37.66 22 38.32 22 39 C11.48761934 37.29528962 3.94733597 35.0680027 -3.5625 27.375 C-6.23792349 21.09357093 -5.98408556 15.00333379 -3.87109375 8.5546875 C-2.67164424 5.66370664 -1.34566116 2.82588844 0 0 Z " fill="#C2C2C2" transform="translate(5,102)"/>
<path d="M0 0 C3.96 0 7.92 0 12 0 C11.01 1.485 11.01 1.485 10 3 C9.54398739 5.50896686 9.54398739 5.50896686 9.375 8.1875 C9.30023438 9.08855469 9.22546875 9.98960937 9.1484375 10.91796875 C9.09945312 11.60503906 9.05046875 12.29210937 9 13 C6.69 13 4.38 13 2 13 C1.93941406 12.31292969 1.87882813 11.62585938 1.81640625 10.91796875 C1.73261719 10.01691406 1.64882812 9.11585938 1.5625 8.1875 C1.48128906 7.29417969 1.40007812 6.40085938 1.31640625 5.48046875 C1.06510233 2.87256441 1.06510233 2.87256441 0 0 Z " fill="#313334" transform="translate(232,131)"/>
<path d="M0 0 C0.33 0 0.66 0 1 0 C1.66624906 3.02780512 2.13525522 5.894332 2 9 C-0.16346236 11.80665387 -1.84806801 13.424034 -5 15 C-9.15634793 15.39964884 -11.53456966 15.22832432 -15.3125 13.375 C-18.39544749 10.65053477 -19.40748577 9.06295469 -20 5 C-18.625 2.625 -18.625 2.625 -17 1 C-16.938125 2.0725 -16.87625 3.145 -16.8125 4.25 C-16.29837503 8.04718771 -16.29837503 8.04718771 -13.875 10.5 C-10.08386986 12.47798094 -8.07202027 12.13111674 -4 11 C-1.98048938 10.06402685 -1.98048938 10.06402685 -1 8 C-0.46476861 5.31854373 -0.2242729 2.73612933 0 0 Z " fill="#4D4F52" transform="translate(232,136)"/>
<path d="M0 0 C2.97 0 5.94 0 9 0 C8.34 2.97 7.68 5.94 7 9 C4.69 9 2.38 9 0 9 C0 6.03 0 3.06 0 0 Z " fill="#303233" transform="translate(206,131)"/>
<path d="M0 0 C0.33 1.32 0.66 2.64 1 4 C-4.78560849 8.77786931 -10.54128358 13.17261249 -17 17 C-17 16.01 -17 15.02 -17 14 C-14.76953117 12.04355178 -12.56203609 10.2639411 -10.1875 8.5 C-8.90883936 7.53298884 -7.63145231 6.56429086 -6.35546875 5.59375 C-5.78465576 5.16771484 -5.21384277 4.74167969 -4.62573242 4.30273438 C-2.95999428 2.96794255 -1.48076394 1.5353995 0 0 Z " fill="#B8D8E6" transform="translate(87,25)"/>
<path d="M0 0 C0.66 0.33 1.32 0.66 2 1 C0.87797799 4.36606602 -0.09274021 5.19481269 -2.75 7.4375 C-3.46671875 8.0459375 -4.1834375 8.654375 -4.921875 9.28125 C-7.26014318 11.21515601 -9.60876067 13.13184428 -12 15 C-12.66 14.34 -13.32 13.68 -14 13 C-9.52647956 8.40410362 -4.91935902 4.11619836 0 0 Z " fill="#C0D2DA" transform="translate(47,56)"/>
<path d="M0 0 C-0.99 0.66 -1.98 1.32 -3 2 C-3 2.66 -3 3.32 -3 4 C-3.59167969 3.94199219 -4.18335937 3.88398438 -4.79296875 3.82421875 C-10.34460941 3.47439259 -10.34460941 3.47439259 -14.9375 6.5 C-15.618125 7.325 -16.29875 8.15 -17 9 C-17.66 9 -18.32 9 -19 9 C-18.39340776 6.2703349 -17.65445194 4.50083975 -15.40234375 2.77734375 C-10.24911782 -0.08100622 -5.81157892 -0.48429824 0 0 Z " fill="#444749" transform="translate(92,127)"/>
<path d="M0 0 C6.93 0 13.86 0 21 0 C21 0.33 21 0.66 21 1 C15.39 1 9.78 1 4 1 C4.66 3.64 5.32 6.28 6 9 C6 9.99 6 10.98 6 12 C5.34 12 4.68 12 4 12 C3.896875 10.948125 3.79375 9.89625 3.6875 8.8125 C3.15972656 4.59725388 3.15972656 4.59725388 0 0 Z " fill="#41454A" transform="translate(257,131)"/>
<path d="M0 0 C1.2065625 0.0309375 1.2065625 0.0309375 2.4375 0.0625 C3.0625 2.4375 3.0625 2.4375 3.4375 5.0625 C2.7775 5.7225 2.1175 6.3825 1.4375 7.0625 C-0.6875 6.6875 -0.6875 6.6875 -2.5625 6.0625 C-2.94468767 4.40635343 -3.27645102 2.73792976 -3.5625 1.0625 C-2.5625 0.0625 -2.5625 0.0625 0 0 Z " fill="#4A4D4F" transform="translate(251.5625,135.9375)"/>
<path d="M0 0 C1.2065625 0.0309375 1.2065625 0.0309375 2.4375 0.0625 C3.0625 2.4375 3.0625 2.4375 3.4375 5.0625 C2.7775 5.7225 2.1175 6.3825 1.4375 7.0625 C-0.6875 6.6875 -0.6875 6.6875 -2.5625 6.0625 C-2.94468767 4.40635343 -3.27645102 2.73792976 -3.5625 1.0625 C-2.5625 0.0625 -2.5625 0.0625 0 0 Z " fill="#4A4D4F" transform="translate(223.5625,135.9375)"/>
<path d="M0 0 C1.2065625 0.0309375 1.2065625 0.0309375 2.4375 0.0625 C3.0625 2.4375 3.0625 2.4375 3.4375 5.0625 C2.7775 5.7225 2.1175 6.3825 1.4375 7.0625 C0.1175 7.0625 -1.2025 7.0625 -2.5625 7.0625 C-2.94383299 5.0710944 -3.27575582 3.06970923 -3.5625 1.0625 C-2.5625 0.0625 -2.5625 0.0625 0 0 Z " fill="#4A4D4F" transform="translate(111.5625,135.9375)"/>
<path d="M0 0 C1.67542976 0.28604898 3.34385343 0.61781233 5 1 C5.625 2.875 5.625 2.875 6 5 C5.34 5.66 4.68 6.32 4 7 C1.375 6.625 1.375 6.625 -1 6 C-1.042721 4.33388095 -1.04063832 2.66617115 -1 1 C-0.67 0.67 -0.34 0.34 0 0 Z " fill="#4A4D4F" transform="translate(81,136)"/>
<path d="M0 0 C0.66 0.33 1.32 0.66 2 1 C0.88333826 4.34998521 0.25305075 4.79340222 -2.5625 6.6875 C-3.20316406 7.12449219 -3.84382813 7.56148437 -4.50390625 8.01171875 C-4.99761719 8.33785156 -5.49132813 8.66398437 -6 9 C-6 6 -6 6 -4.6875 4.39453125 C-4.130625 3.87246094 -3.57375 3.35039063 -3 2.8125 C-2.443125 2.28269531 -1.88625 1.75289062 -1.3125 1.20703125 C-0.6628125 0.60955078 -0.6628125 0.60955078 0 0 Z " fill="#BCD8E5" transform="translate(47,56)"/>
<path d="M0 0 C0.6875 1.8125 0.6875 1.8125 1 4 C-0.3125 5.75 -0.3125 5.75 -2 7 C-2.66 7 -3.32 7 -4 7 C-3.43628586 3.73045798 -2.50037734 2.17424117 0 0 Z " fill="#C1DDE9" transform="translate(87,25)"/>
<path d="M0 0 C-1.39332574 3.36720387 -2.9789286 4.9859524 -6 7 C-6 4 -6 4 -4.125 1.8125 C-2 0 -2 0 0 0 Z " fill="#B6D7E5" transform="translate(35,70)"/>
</svg>
